<svg width="30" height="30" viewBox="0 0 30 30" fill="none" xmlns="http://www.w3.org/2000/svg">
<path d="M29.6811 15.3375C29.6811 14.35 29.5936 13.4125 29.4436 12.5H15.3186V18.1375H23.4061C23.0436 19.9875 21.9811 21.55 20.4061 22.6125V26.3625H25.2311C28.0561 23.75 29.6811 19.9 29.6811 15.3375Z" fill="#4285F4"/>
<path d="M15.3187 30C19.3687 30 22.7562 28.65 25.2312 26.3625L20.4062 22.6125C19.0562 23.5125 17.3437 24.0625 15.3187 24.0625C11.4062 24.0625 8.09365 21.425 6.90615 17.8625H1.93115V21.725C4.39365 26.625 9.45615 30 15.3187 30Z" fill="#34A853"/>
<path d="M6.9061 17.8625C6.5936 16.9625 6.4311 16 6.4311 15C6.4311 14 6.6061 13.0375 6.9061 12.1375V8.275H1.9311C0.906102 10.3 0.318604 12.575 0.318604 15C0.318604 17.425 0.906102 19.7 1.9311 21.725L6.9061 17.8625Z" fill="#FBBC05"/>
<path d="M15.3187 5.9375C17.5312 5.9375 19.5062 6.7 21.0687 8.1875L25.3437 3.9125C22.7562 1.4875 19.3687 0 15.3187 0C9.45615 0 4.39365 3.375 1.93115 8.275L6.90615 12.1375C8.09365 8.575 11.4062 5.9375 15.3187 5.9375Z" fill="#EA4335"/>
</svg>
