<svg width="26" height="14" viewBox="0 0 26 14" fill="none" xmlns="http://www.w3.org/2000/svg">
<path d="M13.7584 4.66667C12.8017 1.94833 10.2117 0 7.16675 0C3.30508 0 0.166748 3.13833 0.166748 7C0.166748 10.8617 3.30508 14 7.16675 14C10.2117 14 12.8017 12.0517 13.7584 9.33333H18.8334V14H23.5001V9.33333H25.8334V4.66667H13.7584ZM7.16675 9.33333C5.88341 9.33333 4.83341 8.28333 4.83341 7C4.83341 5.71667 5.88341 4.66667 7.16675 4.66667C8.45008 4.66667 9.50008 5.71667 9.50008 7C9.50008 8.28333 8.45008 9.33333 7.16675 9.33333Z" fill="black"/>
</svg>
