<svg width="216" height="53" viewBox="0 0 216 53" fill="none" xmlns="http://www.w3.org/2000/svg">
<path d="M5.65063 26.3701C5.65063 28.8187 7.23285 30.8907 9.4178 31.6818V37.6716H5.65063V41.4387H16.9521V37.6716H13.1849V31.6818C15.3699 30.8907 16.9521 28.8187 16.9521 26.3701V11.3015H5.65063V26.3701ZM9.4178 15.0686H13.1849V20.7193H9.4178V15.0686Z" fill="#790000"/>
<path d="M38.8581 16.0858L37.0687 15.483C36.3153 15.2381 35.7879 14.5224 35.7879 13.7124V5.65073C35.7879 4.61476 34.9403 3.76715 33.9043 3.76715H28.2536C27.2176 3.76715 26.37 4.61476 26.37 5.65073V13.7124C26.37 14.5224 25.8426 15.2381 25.0891 15.5018L23.2997 16.1046C21.7552 16.6132 20.7192 18.0447 20.7192 19.6646V37.6716C20.7192 39.7435 22.4145 41.4387 24.4864 41.4387H37.6714C39.7434 41.4387 41.4386 39.7435 41.4386 37.6716V19.6646C41.4386 18.0447 40.4026 16.6132 38.8581 16.0858ZM30.1371 7.53431H32.0207V9.41789H30.1371V7.53431ZM24.4864 19.6646L26.2758 19.0618C28.5926 18.3084 30.1371 16.1423 30.1371 13.7124V13.185H32.0207V13.7124C32.0207 16.1423 33.5652 18.3084 35.882 19.0806L37.6714 19.6646V22.6029H24.4864V19.6646ZM37.6714 37.6716H24.4864V33.9044H37.6714V37.6716Z" fill="#8F8023"/>
<path d="M56.9022 24.4177H58.8822C60.0222 24.4177 60.8922 24.1177 61.4922 23.5177C62.1122 22.8977 62.4222 22.0077 62.4222 20.8477C62.4222 19.6677 62.1122 18.7677 61.4922 18.1477C60.8922 17.5277 60.0222 17.2177 58.8822 17.2177H56.9022V24.4177ZM68.7222 33.2077C68.7222 33.8077 68.6722 34.3077 68.5722 34.7077H63.6222L59.9622 27.1477C59.7622 26.7277 59.5422 26.4277 59.3022 26.2477C59.0622 26.0677 58.7122 25.9777 58.2522 25.9777H56.9022V32.7577C57.6822 33.0777 58.5222 33.2677 59.4222 33.3277C59.4422 33.4677 59.4522 33.6477 59.4522 33.8677C59.4522 34.0877 59.4122 34.3677 59.3322 34.7077H51.0822C51.0822 34.5877 51.0822 34.4077 51.0822 34.1677C51.0822 33.9077 51.1322 33.6277 51.2322 33.3277C51.8922 33.2277 52.3722 33.0677 52.6722 32.8477C52.9722 32.6277 53.1222 32.2377 53.1222 31.6777V17.4277C52.4822 17.1677 51.7722 17.0377 50.9922 17.0377C50.9922 16.4377 51.0422 15.9777 51.1422 15.6577H59.6022C61.7622 15.6577 63.4422 16.1177 64.6422 17.0377C65.8622 17.9577 66.4722 19.2177 66.4722 20.8177C66.4722 21.9777 66.1422 22.9677 65.4822 23.7877C64.8222 24.6077 63.8722 25.2077 62.6322 25.5877C63.1922 25.9277 63.7222 26.5577 64.2222 27.4777L66.2322 31.4077C66.5922 32.1077 66.9422 32.5877 67.2822 32.8477C67.6422 33.0877 68.1222 33.2077 68.7222 33.2077ZM79.2339 22.4077C78.5739 22.4077 77.9639 22.6977 77.4039 23.2777C76.8639 23.8577 76.5039 24.7677 76.3239 26.0077L79.1139 25.7977L81.2439 25.7377C81.1839 23.5177 80.5139 22.4077 79.2339 22.4077ZM76.2039 27.3577V27.6577C76.2039 31.0577 77.4939 32.7577 80.0739 32.7577C81.4339 32.7577 82.8639 32.3977 84.3639 31.6777L84.8739 32.5477C83.2339 34.2477 81.2739 35.0977 78.9939 35.0977C77.9539 35.0977 76.9339 34.8677 75.9339 34.4077C74.9539 33.9277 74.0939 33.1377 73.3539 32.0377C72.6339 30.9377 72.2739 29.6377 72.2739 28.1377C72.2739 25.8177 72.9939 23.9777 74.4339 22.6177C75.8939 21.2577 77.6039 20.5777 79.5639 20.5777C81.0839 20.5777 82.3639 21.0477 83.4039 21.9877C84.4639 22.9277 84.9939 24.3977 84.9939 26.3977C84.8739 26.7577 84.7139 27.0777 84.5139 27.3577H76.2039ZM93.6117 33.3577C94.3517 33.3577 94.9417 33.1877 95.3817 32.8477C95.8217 32.5077 96.0417 32.0877 96.0417 31.5877C96.0417 31.0877 95.8217 30.6477 95.3817 30.2677C94.9417 29.8677 94.4117 29.5077 93.7917 29.1877C93.1717 28.8677 92.5517 28.5277 91.9317 28.1677C91.3117 27.8077 90.7817 27.3377 90.3417 26.7577C89.9017 26.1577 89.6817 25.4677 89.6817 24.6877C89.6817 23.3277 90.1617 22.3077 91.1217 21.6277C92.1017 20.9277 93.2917 20.5777 94.6917 20.5777C96.0917 20.5777 97.4217 20.7877 98.6817 21.2077C98.6817 21.4477 98.6817 21.8777 98.6817 22.4977C98.6817 23.0977 98.6217 23.9077 98.5017 24.9277C97.9817 24.9277 97.5917 24.8877 97.3317 24.8077C97.3517 24.5877 97.3617 24.3877 97.3617 24.2077C97.3617 22.8477 96.6217 22.1677 95.1417 22.1677C94.5417 22.1677 94.0417 22.3277 93.6417 22.6477C93.2617 22.9677 93.0717 23.3877 93.0717 23.9077C93.0717 24.4277 93.2917 24.8777 93.7317 25.2577C94.1917 25.6177 94.7417 25.9477 95.3817 26.2477C96.0417 26.5277 96.6917 26.8477 97.3317 27.2077C97.9917 27.5477 98.5417 28.0177 98.9817 28.6177C99.4417 29.2177 99.6717 29.9177 99.6717 30.7177C99.6717 32.0177 99.1117 33.0777 97.9917 33.8977C96.8717 34.6977 95.4817 35.0977 93.8217 35.0977C92.1617 35.0977 90.6717 34.8977 89.3517 34.4977C89.3117 34.0377 89.2917 33.4777 89.2917 32.8177C89.2917 32.1377 89.3617 31.3577 89.5017 30.4777C89.5417 30.4777 89.9517 30.5077 90.7317 30.5677C90.7317 30.6877 90.7317 30.8977 90.7317 31.1977C90.7317 31.4777 90.8017 31.7977 90.9417 32.1577C91.1017 32.5177 91.3517 32.7777 91.6917 32.9377C92.2317 33.2177 92.8717 33.3577 93.6117 33.3577ZM110.409 22.4077C109.749 22.4077 109.139 22.6977 108.579 23.2777C108.039 23.8577 107.679 24.7677 107.499 26.0077L110.289 25.7977L112.419 25.7377C112.359 23.5177 111.689 22.4077 110.409 22.4077ZM107.379 27.3577V27.6577C107.379 31.0577 108.669 32.7577 111.249 32.7577C112.609 32.7577 114.039 32.3977 115.539 31.6777L116.049 32.5477C114.409 34.2477 112.449 35.0977 110.169 35.0977C109.129 35.0977 108.109 34.8677 107.109 34.4077C106.129 33.9277 105.269 33.1377 104.529 32.0377C103.809 30.9377 103.449 29.6377 103.449 28.1377C103.449 25.8177 104.169 23.9777 105.609 22.6177C107.069 21.2577 108.779 20.5777 110.739 20.5777C112.259 20.5777 113.539 21.0477 114.579 21.9877C115.639 22.9277 116.169 24.3977 116.169 26.3977C116.049 26.7577 115.889 27.0777 115.689 27.3577H107.379ZM121.997 31.6477V23.2477C121.677 23.2077 121.337 23.1877 120.977 23.1877C120.637 23.1877 120.297 23.1977 119.957 23.2177C119.997 22.6177 120.067 22.1777 120.167 21.8977C121.827 21.2977 123.557 20.9077 125.357 20.7277C125.557 21.9677 125.677 23.3377 125.717 24.8377C126.217 23.5777 126.927 22.5577 127.847 21.7777C128.787 20.9777 129.827 20.5777 130.967 20.5777C131.067 20.9377 131.117 21.3977 131.117 21.9577C131.117 22.4977 131.017 23.1977 130.817 24.0577C127.777 24.0577 126.077 25.2177 125.717 27.5377V32.7577C126.557 33.0777 127.487 33.2677 128.507 33.3277C128.507 33.4277 128.507 33.5977 128.507 33.8377C128.507 34.0577 128.467 34.3477 128.387 34.7077H119.957C119.937 34.5677 119.927 34.3777 119.927 34.1377C119.927 33.8777 119.977 33.6077 120.077 33.3277C120.737 33.2277 121.217 33.0677 121.517 32.8477C121.837 32.6077 121.997 32.2077 121.997 31.6477ZM132.725 22.3177C132.645 21.9577 132.605 21.6777 132.605 21.4777C132.605 21.2577 132.615 21.0877 132.635 20.9677H140.105C140.185 21.2077 140.225 21.6577 140.225 22.3177C139.365 22.3577 138.755 22.4477 138.395 22.5877L141.635 32.7877C141.715 32.2277 141.935 31.4177 142.295 30.3577L144.485 24.2377C144.605 23.8977 144.665 23.6177 144.665 23.3977C144.665 23.1777 144.625 23.0077 144.545 22.8877C144.365 22.6077 143.895 22.4177 143.135 22.3177C143.035 22.0177 142.985 21.7477 142.985 21.5077C142.985 21.2677 142.985 21.0877 142.985 20.9677H149.255C149.275 21.4077 149.185 21.8577 148.985 22.3177C148.265 22.3577 147.665 22.4877 147.185 22.7077L142.295 34.8877H139.175L134.855 24.0577C134.655 23.4977 134.415 23.0977 134.135 22.8577C133.855 22.6177 133.385 22.4377 132.725 22.3177ZM155.506 30.9577C155.506 31.4977 155.656 31.9277 155.956 32.2477C156.276 32.5677 156.756 32.7277 157.396 32.7277C158.056 32.7277 158.646 32.4377 159.166 31.8577V27.9577L157.846 28.3177C156.286 28.7577 155.506 29.6377 155.506 30.9577ZM162.256 35.0977C161.576 35.0977 160.956 34.9577 160.396 34.6777C159.856 34.3777 159.486 33.9577 159.286 33.4177C158.326 34.5377 157.176 35.0977 155.836 35.0977C154.516 35.0977 153.476 34.7377 152.716 34.0177C151.956 33.2977 151.576 32.3777 151.576 31.2577C151.576 30.1377 151.936 29.2477 152.656 28.5877C153.376 27.9277 154.466 27.4477 155.926 27.1477L159.166 26.4877V25.4077C159.166 24.6477 158.976 24.0977 158.596 23.7577C158.236 23.3977 157.566 23.2177 156.586 23.2177C155.626 23.2177 154.516 23.4377 153.256 23.8777L152.506 22.7677C154.186 21.3077 156.126 20.5777 158.326 20.5777C159.826 20.5777 160.956 20.9877 161.716 21.8077C162.476 22.6277 162.856 23.7877 162.856 25.2877V31.2577C162.856 32.2777 163.176 32.7877 163.816 32.7877C163.916 32.7877 164.286 32.7277 164.926 32.6077L165.226 33.3877C164.306 34.5277 163.316 35.0977 162.256 35.0977ZM173.75 35.0677C172.61 35.0677 171.69 34.7277 170.99 34.0477C170.29 33.3477 169.94 32.3177 169.94 30.9577V22.9477C169.38 22.8677 168.74 22.8277 168.02 22.8277C168.02 22.4077 168.04 22.0177 168.08 21.6577C168.58 21.4577 169.19 21.2677 169.91 21.0877L172.88 16.7377L173.63 16.9477V21.0577C175.03 21.0177 176.3 20.9277 177.44 20.7877C177.44 21.5477 177.35 22.2277 177.17 22.8277H173.63L173.66 30.7777C173.66 31.9577 174.12 32.5477 175.04 32.5477C175.8 32.5477 176.57 32.2477 177.35 31.6477L177.98 32.4577C176.76 34.1977 175.35 35.0677 173.75 35.0677ZM186.772 18.3277C186.332 18.7677 185.802 18.9877 185.182 18.9877C184.562 18.9877 184.032 18.7677 183.592 18.3277C183.152 17.8877 182.932 17.3577 182.932 16.7377C182.932 16.1177 183.152 15.5877 183.592 15.1477C184.032 14.7077 184.562 14.4877 185.182 14.4877C185.822 14.4877 186.352 14.7077 186.772 15.1477C187.212 15.5677 187.432 16.0977 187.432 16.7377C187.432 17.3577 187.212 17.8877 186.772 18.3277ZM188.872 33.3277C188.872 33.4077 188.872 33.5477 188.872 33.7477C188.872 33.9477 188.842 34.2677 188.782 34.7077H181.312C181.292 34.5677 181.282 34.3777 181.282 34.1377C181.282 33.8777 181.332 33.6077 181.432 33.3277C182.092 33.2277 182.572 33.0677 182.872 32.8477C183.192 32.6077 183.352 32.2177 183.352 31.6777V23.2477C183.032 23.2077 182.692 23.1877 182.332 23.1877C181.992 23.1877 181.652 23.1977 181.312 23.2177C181.352 22.6377 181.422 22.1777 181.522 21.8377C183.262 21.2577 185.112 20.8877 187.072 20.7277V32.9377C187.572 33.1577 188.172 33.2877 188.872 33.3277ZM203.104 28.3177C203.104 24.2977 202.014 22.2877 199.834 22.2877C197.814 22.2877 196.804 23.9777 196.804 27.3577C196.804 27.5177 196.804 27.6777 196.804 27.8377C196.964 31.4777 198.074 33.2977 200.134 33.2977C202.114 33.2977 203.104 31.6377 203.104 28.3177ZM199.984 20.5777C202.104 20.5777 203.814 21.2077 205.114 22.4677C206.414 23.7277 207.064 25.5077 207.064 27.8077C207.064 30.1077 206.404 31.8977 205.084 33.1777C203.764 34.4377 202.044 35.0677 199.924 35.0677C197.804 35.0677 196.094 34.4377 194.794 33.1777C193.514 31.9177 192.874 30.1377 192.874 27.8377C192.874 25.5377 193.534 23.7577 194.854 22.4977C196.174 21.2177 197.884 20.5777 199.984 20.5777Z" fill="#4A4A4A"/>
</svg>
